<svg width="22" height="22" viewBox="0 0 22 22" fill="none" xmlns="http://www.w3.org/2000/svg">
<g id="elements">
<path id="Vector" d="M12.5 12L16 8M13 14C13 15.1046 12.1046 16 11 16C9.89543 16 9 15.1046 9 14C9 12.8954 9.89543 12 11 12C12.1046 12 13 12.8954 13 14Z" stroke="#676767" stroke-width="1.5" stroke-linecap="round"/>
<path id="Ellipse 1287" d="M5 11C5 7.68629 7.68629 5 11 5C12.0929 5 13.1175 5.29218 14 5.80269" stroke="#676767" stroke-width="1.5" stroke-linecap="round"/>
<path id="Rectangle 2056" d="M1.5 11C1.5 6.52166 1.5 4.28249 2.89124 2.89124C4.28249 1.5 6.52166 1.5 11 1.5C15.4783 1.5 17.7175 1.5 19.1088 2.89124C20.5 4.28249 20.5 6.52166 20.5 11C20.5 15.4783 20.5 17.7175 19.1088 19.1088C17.7175 20.5 15.4783 20.5 11 20.5C6.52166 20.5 4.28249 20.5 2.89124 19.1088C1.5 17.7175 1.5 15.4783 1.5 11Z" stroke="#676767" stroke-width="1.5"/>
</g>
</svg>
